<mxfile host="Electron" modified="2024-07-20T14:36:05.799Z" agent="Mozilla/5.0 (Macintosh; Intel Mac OS X 10_15_7) AppleWebKit/537.36 (KHTML, like Gecko) draw.io/24.6.4 Chrome/124.0.6367.207 Electron/30.0.6 Safari/537.36" etag="9arzeoYOzepYWp5BJy2M" version="24.6.4" type="device">
  <diagram name="페이지-1" id="CRn54l0DRjd7GnNR_4wV">
    <mxGraphModel dx="1114" dy="682" grid="1" gridSize="10" guides="1" tooltips="1" connect="1" arrows="1" fold="1" page="1" pageScale="1" pageWidth="827" pageHeight="1169" math="0" shadow="0">
      <root>
        <mxCell id="0" />
        <mxCell id="1" parent="0" />
        <mxCell id="EXC7CXvS04KFBcngUKEO-1" value="메시지 시스템" style="rounded=0;whiteSpace=wrap;html=1;fillColor=#f8cecc;strokeColor=#b85450;" vertex="1" parent="1">
          <mxGeometry x="350" y="320" width="120" height="60" as="geometry" />
        </mxCell>
        <mxCell id="EXC7CXvS04KFBcngUKEO-4" style="edgeStyle=orthogonalEdgeStyle;rounded=0;orthogonalLoop=1;jettySize=auto;html=1;" edge="1" parent="1" source="EXC7CXvS04KFBcngUKEO-2" target="EXC7CXvS04KFBcngUKEO-1">
          <mxGeometry relative="1" as="geometry" />
        </mxCell>
        <mxCell id="EXC7CXvS04KFBcngUKEO-2" value="카탈로그&lt;div&gt;바운디드 컨텍스트&lt;/div&gt;" style="rounded=0;whiteSpace=wrap;html=1;" vertex="1" parent="1">
          <mxGeometry x="130" y="320" width="120" height="60" as="geometry" />
        </mxCell>
        <mxCell id="EXC7CXvS04KFBcngUKEO-5" style="edgeStyle=orthogonalEdgeStyle;rounded=0;orthogonalLoop=1;jettySize=auto;html=1;entryX=1;entryY=0.5;entryDx=0;entryDy=0;" edge="1" parent="1" source="EXC7CXvS04KFBcngUKEO-3" target="EXC7CXvS04KFBcngUKEO-1">
          <mxGeometry relative="1" as="geometry" />
        </mxCell>
        <mxCell id="EXC7CXvS04KFBcngUKEO-3" value="추천&lt;div&gt;바운디드 컨텍스트&lt;/div&gt;" style="rounded=0;whiteSpace=wrap;html=1;" vertex="1" parent="1">
          <mxGeometry x="560" y="320" width="120" height="60" as="geometry" />
        </mxCell>
        <mxCell id="EXC7CXvS04KFBcngUKEO-7" style="edgeStyle=orthogonalEdgeStyle;rounded=0;orthogonalLoop=1;jettySize=auto;html=1;curved=1;fillColor=#d5e8d4;strokeColor=#82b366;sketch=1;curveFitting=1;jiggle=2;" edge="1" parent="1" source="EXC7CXvS04KFBcngUKEO-6">
          <mxGeometry relative="1" as="geometry">
            <mxPoint x="290" y="350" as="targetPoint" />
          </mxGeometry>
        </mxCell>
        <mxCell id="EXC7CXvS04KFBcngUKEO-6" value="사용자가 조회한 상품 이력이나 구매 이력을 메시지 형식으로 큐에 추가" style="text;html=1;align=center;verticalAlign=middle;whiteSpace=wrap;rounded=0;fillColor=#d5e8d4;strokeColor=#82b366;sketch=1;curveFitting=1;jiggle=2;" vertex="1" parent="1">
          <mxGeometry x="204" y="250" width="210" height="40" as="geometry" />
        </mxCell>
        <mxCell id="EXC7CXvS04KFBcngUKEO-9" style="edgeStyle=orthogonalEdgeStyle;rounded=0;orthogonalLoop=1;jettySize=auto;html=1;curved=1;fillColor=#d5e8d4;strokeColor=#82b366;sketch=1;curveFitting=1;jiggle=2;" edge="1" parent="1" source="EXC7CXvS04KFBcngUKEO-8">
          <mxGeometry relative="1" as="geometry">
            <mxPoint x="540" y="350" as="targetPoint" />
          </mxGeometry>
        </mxCell>
        <mxCell id="EXC7CXvS04KFBcngUKEO-8" value="큐에서 메시지를 가져옴" style="text;html=1;align=center;verticalAlign=middle;whiteSpace=wrap;rounded=0;fillColor=#d5e8d4;strokeColor=#82b366;sketch=1;curveFitting=1;jiggle=2;" vertex="1" parent="1">
          <mxGeometry x="440" y="410" width="160" height="40" as="geometry" />
        </mxCell>
      </root>
    </mxGraphModel>
  </diagram>
</mxfile>
